Hotel Transylvania 2012 CAM XviD-NoGRP

Dracula, who operates a high-end resort away from the human world, goes into overprotective mode when a
boy discovers the resort and falls for the count's teen-aged daughter.
 
http://www.imdb.com/title/tt0837562/

ormat : AVI
Format/Info : Audio Video Interleave
Format profile : OpenDML
File size : 1.14 GiB
Duration : 1h 35mn
Overall bit rate : 1 706 Kbps
Writing application : Lavf52.57.1

Video
ID : 0
Format : MPEG-4 Visual
Codec ID : FMP4
Duration : 1h 35mn
Bit rate : 1 561 Kbps
Width : 720 pixels
Height : 480 pixels
Display aspect ratio : 3:2
Frame rate : 29.970 fps
Standard : NTSC
Color space : YUV
Chroma subsampling : 4:2:0
Compression mode : Lossy
Bits/(Pixel*Frame) : 0.151
Stream size : 1.04 GiB (91%)

Audio
ID : 1
Format : MPEG Audio
Format version : Version 1
Format profile : Layer 3
Mode : Joint stereo
Mode extension : MS Stereo
Codec ID : 55
Codec ID/Hint : MP3
Duration : 1h 35mn
Bit rate mode : Constant
Bit rate : 128 Kbps
Channel(s) : 2 channels
Sampling rate : 48.0 KHz
Compression mode : Lossy
Stream size : 87.3 MiB (8%)
Alignment : Aligned on interleaves
Interleave, duration : 24 ms (0.72 video frame)


Poster:

 
http://www.shotpix.com/images/03505023359270753281.jpg


Screenshots:

 
http://www.shotpix.com/images/32194051676013945313.png

 
http://www.shotpix.com/images/11094631965038071451.png

 
http://www.shotpix.com/images/29037317771317948599.png


ENJOY!